<svg width="324" height="81" viewBox="0 0 324 81" fill="none" xmlns="http://www.w3.org/2000/svg">
<path fill-rule="evenodd" clip-rule="evenodd" d="M119.016 0H9.21674C4.16757 0 0 4.16757 0 9.21674V70.8487C0 75.978 4.16757 80.1456 9.21674 80.1456H118.936C124.065 80.1456 128.153 75.978 128.153 70.9289V9.21674C128.233 4.16757 124.065 0 119.016 0ZM72.131 64.1165H56.1019V40.0728L44.0801 55.4608L32.0582 40.0728V64.1165H16.0291V16.0291H32.0582L44.0801 32.0582L56.1019 16.0291H72.131V64.1165ZM96.0946 68.1238L76.1383 40.0728H88.1602V16.0291H104.189V40.0728H116.211L96.0946 68.1238Z" fill="#2F2F2F"/>
<path d="M147.118 66.0469H136.992V12.411H147.118V66.0469ZM151.426 46.8064C151.426 43.0584 152.148 39.7178 153.591 36.7846C155.035 33.8514 157.107 31.5816 159.807 29.9753C162.531 28.369 165.685 27.5659 169.27 27.5659C174.368 27.5659 178.524 29.1256 181.736 32.2451C184.972 35.3645 186.776 39.6014 187.149 44.9557L187.219 47.5397C187.219 53.3363 185.601 57.9922 182.365 61.5074C179.129 64.9993 174.787 66.7453 169.34 66.7453C163.893 66.7453 159.539 64.9993 156.28 61.5074C153.044 58.0155 151.426 53.2664 151.426 47.2603V46.8064ZM161.518 47.5397C161.518 51.1247 162.193 53.8717 163.543 55.7806C164.894 57.6663 166.826 58.6091 169.34 58.6091C171.784 58.6091 173.693 57.6779 175.067 55.8155C176.44 53.9299 177.127 50.9269 177.127 46.8064C177.127 43.2912 176.44 40.5675 175.067 38.6353C173.693 36.7031 171.761 35.737 169.27 35.737C166.803 35.737 164.894 36.7031 163.543 38.6353C162.193 40.5442 161.518 43.5123 161.518 47.5397ZM212.863 66.0469C212.397 65.139 212.059 64.0099 211.85 62.6597C209.406 65.3834 206.228 66.7453 202.317 66.7453C198.616 66.7453 195.543 65.6744 193.098 63.5327C190.677 61.391 189.467 58.6906 189.467 55.4314C189.467 51.4274 190.945 48.3545 193.902 46.2128C196.881 44.071 201.176 42.9886 206.787 42.9653H211.431V40.8003C211.431 39.0543 210.977 37.6576 210.069 36.61C209.184 35.5624 207.776 35.0386 205.844 35.0386C204.144 35.0386 202.806 35.446 201.828 36.2608C200.874 37.0756 200.396 38.193 200.396 39.613H190.305C190.305 37.4248 190.98 35.3994 192.33 33.5371C193.68 31.6747 195.589 30.2198 198.057 29.1722C200.525 28.1013 203.295 27.5659 206.368 27.5659C211.024 27.5659 214.713 28.7415 217.437 31.0927C220.184 33.4207 221.558 36.7031 221.558 40.94V57.3171C221.581 60.9021 222.081 63.6142 223.059 65.4532V66.0469H212.863ZM204.517 59.0281C206.007 59.0281 207.38 58.7022 208.637 58.0504C209.895 57.3753 210.826 56.479 211.431 55.3616V48.8666H207.66C202.608 48.8666 199.919 50.6126 199.593 54.1045L199.558 54.6981C199.558 55.9552 200.001 56.9912 200.885 57.8059C201.77 58.6207 202.981 59.0281 204.517 59.0281ZM225.272 46.8762C225.272 40.9865 226.588 36.2957 229.218 32.8038C231.872 29.3119 235.492 27.5659 240.078 27.5659C243.756 27.5659 246.794 28.9394 249.192 31.6864V12.411H259.318V66.0469H250.205L249.716 62.0312C247.201 65.1739 243.966 66.7453 240.008 66.7453C235.562 66.7453 231.988 64.9993 229.288 61.5074C226.611 57.9922 225.272 53.1151 225.272 46.8762ZM235.364 47.6095C235.364 51.148 235.981 53.8601 237.215 55.7457C238.448 57.6313 240.241 58.5742 242.592 58.5742C245.712 58.5742 247.912 57.2589 249.192 54.6283V39.7178C247.935 37.0872 245.758 35.7719 242.662 35.7719C237.797 35.7719 235.364 39.7178 235.364 47.6095ZM282.064 66.7453C276.524 66.7453 272.007 65.0459 268.515 61.6471C265.047 58.2483 263.312 53.7204 263.312 48.0635V47.0857C263.312 43.2912 264.046 39.904 265.512 36.9243C266.979 33.9212 269.051 31.6165 271.728 30.0102C274.428 28.3807 277.501 27.5659 280.947 27.5659C286.115 27.5659 290.177 29.1955 293.133 32.4546C296.113 35.7137 297.603 40.3347 297.603 46.3175V50.438H273.544C273.87 52.9056 274.847 54.8844 276.477 56.3743C278.13 57.8641 280.213 58.6091 282.728 58.6091C286.615 58.6091 289.653 57.2007 291.841 54.3839L296.8 59.936C295.287 62.0777 293.238 63.7538 290.654 64.9644C288.07 66.1516 285.207 66.7453 282.064 66.7453ZM280.912 35.737C278.91 35.737 277.28 36.4121 276.023 37.7623C274.789 39.1125 273.998 41.0447 273.649 43.5589H287.686V42.7558C287.64 40.5209 287.034 38.7982 285.87 37.5877C284.706 36.3539 283.053 35.737 280.912 35.737ZM322.13 37.7274C320.756 37.5412 319.546 37.448 318.498 37.448C314.68 37.448 312.178 38.7401 310.99 41.3241V66.0469H300.899V28.2643H310.432L310.711 32.7689C312.736 29.3002 315.542 27.5659 319.127 27.5659C320.244 27.5659 321.292 27.7172 322.269 28.0199L322.13 37.7274Z" fill="#2F2F2F"/>
</svg>
