<svg width="322" height="53" viewBox="0 0 322 53" fill="none" xmlns="http://www.w3.org/2000/svg">
<path d="M41.3649 2.86868H31.0253V33.7677H30.5934L9.38636 2.86868H0.270202V52H10.6578V21.077H11.0177L32.3927 52H41.3649V2.86868ZM63.0266 52.7197C74.2059 52.7197 81.1629 45.0669 81.1629 33.7197C81.1629 22.3005 74.2059 14.6717 63.0266 14.6717C51.8473 14.6717 44.8902 22.3005 44.8902 33.7197C44.8902 45.0669 51.8473 52.7197 63.0266 52.7197ZM63.0746 44.803C57.9167 44.803 55.2778 40.077 55.2778 33.6477C55.2778 27.2184 57.9167 22.4684 63.0746 22.4684C68.1364 22.4684 70.7753 27.2184 70.7753 33.6477C70.7753 40.077 68.1364 44.803 63.0746 44.803ZM104.03 15.1515H97.097V6.32323H86.8773V15.1515H81.8395V22.8283H86.8773V42.0202C86.8294 49.2412 91.7473 52.8157 99.1602 52.5038C101.799 52.4078 103.67 51.8801 104.702 51.5442L103.095 43.9394C102.591 44.0354 101.511 44.2753 100.552 44.2753C98.5124 44.2753 97.097 43.5076 97.097 40.6768V22.8283H104.03V15.1515ZM152.65 27.4343C152.65 11.3611 142.671 2.19697 129.644 2.19697C116.546 2.19697 106.638 11.3611 106.638 27.4343C106.638 43.4356 116.546 52.6717 129.644 52.6717C142.671 52.6717 152.65 43.5076 152.65 27.4343ZM142.119 27.4343C142.119 37.846 137.177 43.4836 129.644 43.4836C122.087 43.4836 117.169 37.846 117.169 27.4343C117.169 17.0227 122.087 11.3851 129.644 11.3851C137.177 11.3851 142.119 17.0227 142.119 27.4343ZM180.406 36.3106C180.43 41.2525 177.047 43.8434 173.377 43.8434C169.514 43.8434 167.019 41.1326 166.995 36.7904V15.1515H156.776V38.6136C156.799 47.226 161.837 52.4798 169.25 52.4798C174.792 52.4798 178.774 49.625 180.43 45.3068H180.813V52H190.625V15.1515H180.406V36.3106ZM215.022 15.1515H208.089V6.32323H197.869V15.1515H192.831V22.8283H197.869V42.0202C197.821 49.2412 202.739 52.8157 210.152 52.5038C212.791 52.4078 214.662 51.8801 215.693 51.5442L214.086 43.9394C213.582 44.0354 212.503 44.2753 211.543 44.2753C209.504 44.2753 208.089 43.5076 208.089 40.6768V22.8283H215.022V15.1515ZM229.313 2.86868H219.093V52H229.313V2.86868ZM234.121 52H244.341V15.1515H234.121V52ZM239.255 10.4015C242.302 10.4015 244.797 8.07449 244.797 5.21969C244.797 2.38889 242.302 0.0618648 239.255 0.0618648C236.232 0.0618648 233.738 2.38889 233.738 5.21969C233.738 8.07449 236.232 10.4015 239.255 10.4015ZM259.37 30.697C259.394 25.947 262.224 23.1641 266.351 23.1641C270.453 23.1641 272.924 25.851 272.9 30.3611V52H283.12V28.5379C283.12 19.9495 278.082 14.6717 270.405 14.6717C264.935 14.6717 260.977 17.3586 259.322 21.6528H258.89V15.1515H249.15V52H259.37V30.697ZM304.589 52.7197C313.705 52.7197 319.847 48.2816 321.286 41.4444L311.834 40.8207C310.803 43.6275 308.164 45.0909 304.757 45.0909C299.647 45.0909 296.409 41.7083 296.409 36.2146V36.1907H321.502V33.3838C321.502 20.8611 313.921 14.6717 304.181 14.6717C293.338 14.6717 286.309 22.3725 286.309 33.7437C286.309 45.4268 293.242 52.7197 304.589 52.7197ZM296.409 29.8573C296.625 25.6591 299.815 22.3005 304.349 22.3005C308.788 22.3005 311.858 25.4672 311.882 29.8573H296.409Z" fill="#2F2F2F"/>
</svg>
